<svg xmlns="http://www.w3.org/2000/svg" viewBox="0 0 427.86 170.29"><defs><style>.cls-1{fill:#2f4858;}.cls-2{fill:#fda100;}.cls-3{fill:#ffa200;}</style></defs><g id="Layer_2" data-name="Layer 2"><g id="Layer_1-2" data-name="Layer 1"><path class="cls-1" d="M156.7,135.27A85,85,0,0,0,46.58,10.86L39.43,18,52.85,31.42a63.77,63.77,0,0,1,88.4,88.4Z"/><path class="cls-2" d="M120.57,137.51A63.78,63.78,0,0,1,32.07,49L17,34A85,85,0,0,0,136.1,153Z"/><path class="cls-1" d="M31.89,0A31.89,31.89,0,1,0,63.78,31.89,31.89,31.89,0,0,0,31.89,0Zm0,42.52A10.5,10.5,0,1,1,42.36,32,10.5,10.5,0,0,1,31.86,42.52Z"/><path class="cls-2" d="M138.19,106.51a31.89,31.89,0,1,0,31.89,31.89A31.89,31.89,0,0,0,138.19,106.51Zm0,41.81a10.63,10.63,0,1,1,10.63-10.63A10.63,10.63,0,0,1,138.19,148.32Z"/><path class="cls-1" d="M219,54.82H196l3.64-18.76H268l-3.64,18.76h-23L227.1,127.06H204.7Z"/><path class="cls-1" d="M264.06,57.06h18.2l-.56,13.72h.56c5.32-9,13.44-15.4,21.28-15.4,3.92,0,6.16.56,7.56,1.4L303.82,76.1c-2-1.12-5-1.12-7.28-1.12-5.88,0-10.92,3.64-16.24,12.88l-7.56,39.2h-22.4Z"/><path class="cls-1" d="M320.34,57.06h22.4l-14,70h-22.4Zm3.08-19.32c0-6.72,5.88-12.6,13.44-12.6,5.88,0,11.76,3.64,11.76,10.36,0,7.28-5.88,12.6-13.44,12.6C329.3,48.1,323.42,44.74,323.42,37.74Z"/><path class="cls-3" d="M365.7,36.06h30c18.06,0,32.2,6.72,32.2,24.92,0,26.6-20,36.4-42.84,36.4h-9.24l-5.88,29.68H347.5Zm22,43.68c11.48,0,18.06-5.32,18.06-15.4,0-7.28-4.9-10.64-13.16-10.64h-8.12l-5,26Z"/></g></g></svg>