<svg xmlns="http://www.w3.org/2000/svg" viewBox="0 0 595.28 254.61"><defs><style>.cls-1{fill:#2f4858;}.cls-2{fill:#f1f1f3;}.cls-3{fill:#fda100;}.cls-4{fill:#ffa200;}</style></defs><g id="Layer_2" data-name="Layer 2"><g id="Layer_1-2" data-name="Layer 1"><rect class="cls-1" width="595.28" height="254.61"/><path class="cls-2" d="M255.24,177.54A85,85,0,0,0,145.12,53.12L138,60.27l13.41,13.41a63.76,63.76,0,0,1,88.4,88.4Z"/><path class="cls-3" d="M222.19,179.67a63.78,63.78,0,0,1-88.5-88.5l-15-15A85,85,0,0,0,237.72,195.2Z"/><path class="cls-2" d="M133.51,42.16A31.89,31.89,0,1,0,165.4,74.05,31.89,31.89,0,0,0,133.51,42.16Zm0,42.52A10.5,10.5,0,1,1,144,74.18,10.5,10.5,0,0,1,133.48,84.68Z"/><path class="cls-3" d="M239.81,148.67a31.89,31.89,0,1,0,31.89,31.89A31.89,31.89,0,0,0,239.81,148.67Zm0,41.81a10.63,10.63,0,1,1,10.63-10.63A10.63,10.63,0,0,1,239.81,190.48Z"/><path class="cls-2" d="M320.6,97h-23l3.64-18.76H369.6L366,97H343l-14.28,72.24h-22.4Z"/><path class="cls-2" d="M365.68,99.22h18.2l-.56,13.72h.56c5.32-9,13.44-15.4,21.28-15.4,3.92,0,6.16.56,7.56,1.4l-7.28,19.32c-2-1.12-5-1.12-7.28-1.12-5.88,0-10.92,3.64-16.24,12.88l-7.56,39.2H352Z"/><path class="cls-2" d="M422,99.22h22.4l-14,70H408ZM425,79.9c0-6.72,5.88-12.6,13.44-12.6,5.88,0,11.76,3.64,11.76,10.36,0,7.28-5.88,12.6-13.44,12.6C430.92,90.26,425,86.9,425,79.9Z"/><path class="cls-4" d="M467.32,78.22h30c18.06,0,32.2,6.72,32.2,24.92,0,26.6-20,36.4-42.84,36.4H477.4l-5.88,29.68h-22.4Zm22,43.68c11.48,0,18.06-5.32,18.06-15.4,0-7.28-4.9-10.64-13.16-10.64h-8.12l-5,26Z"/></g></g></svg>