<svg xmlns="http://www.w3.org/2000/svg" viewBox="0 0 595.28 254.61"><defs><style>.cls-1{fill:none;}.cls-2{fill:#2f4858;}.cls-3{fill:#fda100;}.cls-4{fill:#ffa200;}</style></defs><g id="Layer_2" data-name="Layer 2"><g id="Layer_1-2" data-name="Layer 1"><rect class="cls-1" width="595.28" height="254.61"/><path class="cls-2" d="M256.85,177.44A85,85,0,0,0,146.74,53l-7.15,7.15L153,73.58A63.76,63.76,0,0,1,241.4,162Z"/><path class="cls-3" d="M220.72,179.67a63.78,63.78,0,0,1-88.5-88.5l-15-15A85,85,0,0,0,236.25,195.2Z"/><path class="cls-2" d="M132,42.16a31.89,31.89,0,1,0,31.89,31.89A31.89,31.89,0,0,0,132,42.16Zm0,42.52a10.5,10.5,0,1,1,10.5-10.5A10.5,10.5,0,0,1,132,84.68Z"/><path class="cls-3" d="M238.34,148.67a31.89,31.89,0,1,0,31.89,31.89A31.89,31.89,0,0,0,238.34,148.67Zm0,41.81A10.63,10.63,0,1,1,249,179.85,10.63,10.63,0,0,1,238.34,190.48Z"/><path class="cls-2" d="M319.13,97h-23l3.64-18.76h68.32L364.49,97h-23l-14.28,72.24h-22.4Z"/><path class="cls-2" d="M364.21,99.22h18.2l-.56,13.72h.56c5.32-9,13.44-15.4,21.28-15.4,3.92,0,6.16.56,7.56,1.4L404,118.26c-2-1.12-5-1.12-7.28-1.12-5.88,0-10.92,3.64-16.24,12.88l-7.56,39.2h-22.4Z"/><path class="cls-2" d="M420.49,99.22h22.4l-14,70h-22.4Zm3.08-19.32c0-6.72,5.88-12.6,13.44-12.6,5.88,0,11.76,3.64,11.76,10.36,0,7.28-5.88,12.6-13.44,12.6C429.45,90.26,423.57,86.9,423.57,79.9Z"/><path class="cls-4" d="M465.85,78.22h30c18.06,0,32.2,6.72,32.2,24.92,0,26.6-20,36.4-42.84,36.4h-9.24l-5.88,29.68h-22.4Zm22,43.68c11.48,0,18.06-5.32,18.06-15.4,0-7.28-4.9-10.64-13.16-10.64h-8.12l-5,26Z"/></g></g></svg>